<?xml version="1.0" encoding="UTF-8" standalone="no"?>
<svg
   xmlns:dc="http://purl.org/dc/elements/1.1/"
   xmlns:cc="http://creativecommons.org/ns#"
   xmlns:rdf="http://www.w3.org/1999/02/22-rdf-syntax-ns#"
   xmlns:svg="http://www.w3.org/2000/svg"
   xmlns="http://www.w3.org/2000/svg"
   xmlns:sodipodi="http://sodipodi.sourceforge.net/DTD/sodipodi-0.dtd"
   xmlns:inkscape="http://www.inkscape.org/namespaces/inkscape"
   id="a706cf1c-1654-439b-8fcf-310eb7aa0e00"
   data-name="Layer 1"
   width="224"
   height="156"
   viewBox="0 0 224 156"
   version="1.1"
   sodipodi:docname="not_found_ink.svg"
   inkscape:version="0.92.3 (2405546, 2018-03-11)">
  <metadata
     id="metadata75">
    <rdf:RDF>
      <cc:Work
         rdf:about="">
        <dc:format>image/svg+xml</dc:format>
        <dc:type
           rdf:resource="http://purl.org/dc/dcmitype/StillImage" />
        <dc:title>not found</dc:title>
      </cc:Work>
    </rdf:RDF>
  </metadata>
  <defs
     id="defs73" />
  <sodipodi:namedview
     pagecolor="#ffffff"
     bordercolor="#666666"
     borderopacity="1"
     objecttolerance="10"
     gridtolerance="10"
     guidetolerance="10"
     inkscape:pageopacity="0"
     inkscape:pageshadow="2"
     inkscape:window-width="1920"
     inkscape:window-height="1016"
     id="namedview71"
     showgrid="false"
     inkscape:zoom="0.98489873"
     inkscape:cx="48.325409"
     inkscape:cy="-185.02214"
     inkscape:window-x="0"
     inkscape:window-y="27"
     inkscape:window-maximized="1"
     inkscape:current-layer="a706cf1c-1654-439b-8fcf-310eb7aa0e00"
     units="in" />
  <title
     id="title2">not found</title>
  <g
     id="g251"
     transform="translate(1.0153333,81.046003)">
    <ellipse
       ry="12.834293"
       rx="12.793235"
       id="circle4"
       cy="-58.107666"
       cx="42.42683"
       style="fill:#ff6584;stroke-width:0.20021482" />
    <path
       id="path6"
       d="m 104.67072,-9.9546529 c 0,30.2831999 -17.945285,40.8569619 -40.081919,40.8569619 -22.136635,0 -40.08192,-10.573762 -40.08192,-40.8569619 0,-30.2832001 40.08192,-68.8082041 40.08192,-68.8082041 0,0 40.081919,38.525004 40.081919,68.8082041 z"
       inkscape:connector-curvature="0"
       style="fill:#f2f2f2;stroke-width:0.20021482" />
    <polygon
       transform="matrix(0.1998943,0,0,0.20053584,-0.06914944,-78.762857)"
       id="polygon8"
       points="252.547,139.704 315.646,257.508 309.671,371.654 309.493,368.625 235.565,265.329 309.269,379.328 308.522,393.603 308.388,393.818 308.449,394.99 293.29,684.589 313.544,684.589 315.974,535.005 389.496,421.285 316.156,523.761 318.21,397.378 403.674,241.024 318.532,377.552 319.455,320.725 378.357,207.605 319.699,305.687 321.359,203.481 384.433,113.423 321.621,187.409 322.658,0 316.138,248.096 316.674,237.861 "
       style="fill:#3f3d56" />
    <path
       id="path10"
       d="m 223.93085,2.4484608 c 0,24.7882352 -14.68907,33.4433622 -32.80896,33.4433622 -18.11989,0 -32.80896,-8.655127 -32.80896,-33.4433622 0,-24.7882348 32.80896,-56.3227948 32.80896,-56.3227948 0,0 32.80896,31.534554 32.80896,56.3227948 z"
       inkscape:connector-curvature="0"
       style="fill:#f2f2f2;stroke-width:0.20021482" />
    <polygon
       transform="matrix(0.1998943,0,0,0.20053584,-0.06914944,-78.762857)"
       id="polygon12"
       points="898.414,238.464 950.064,334.893 945.173,428.327 945.027,425.847 884.514,341.294 944.844,434.608 944.232,446.293 944.123,446.469 944.173,447.428 931.764,684.478 948.343,684.478 950.332,562.037 1010.514,468.952 950.482,552.833 952.162,449.383 1022.119,321.4 952.426,433.154 953.182,386.639 1001.396,294.044 953.382,374.329 954.741,290.669 1006.369,216.952 954.954,277.514 955.804,124.11 950.467,327.188 950.906,318.811 "
       style="fill:#3f3d56" />
    <ellipse
       id="ellipse14"
       ry="5.6218882"
       rx="110.85984"
       cy="57.697571"
       cx="110.79069"
       style="fill:#3f3d56;stroke-width:0.20021482" />
    <ellipse
       id="ellipse16"
       ry="0.96289688"
       rx="18.987675"
       cy="66.985916"
       cx="178.3255"
       style="fill:#3f3d56;stroke-width:0.20021482" />
    <ellipse
       id="ellipse18"
       ry="0.96289688"
       rx="18.987675"
       cy="76.274246"
       cx="109.61678"
       style="fill:#3f3d56;stroke-width:0.20021482" />
    <ellipse
       id="ellipse20"
       ry="2.1998701"
       rx="43.379932"
       cy="68.486374"
       cx="57.489277"
       style="fill:#3f3d56;stroke-width:0.20021482" />
    <ellipse
       ry="15.842331"
       rx="15.79165"
       id="circle22"
       cy="34.79454"
       cx="19.337337"
       style="fill:#2f2e41;stroke-width:0.20021482" />
    <rect
       id="rect24"
       transform="matrix(0.99993014,0.01182009,-0.01174459,0.99993103,0,0)"
       height="8.6230373"
       width="4.7974653"
       y="46.996754"
       x="12.548456"
       style="fill:#2f2e41;stroke-width:0.20021482" />
    <rect
       id="rect26"
       transform="matrix(0.99993014,0.01182009,-0.01174459,0.99993103,0,0)"
       height="8.6230373"
       width="4.7974653"
       y="46.996754"
       x="22.143385"
       style="fill:#2f2e41;stroke-width:0.20021482" />
    <ellipse
       id="ellipse28"
       transform="matrix(0.01174459,-0.99993103,0.99993014,0.01182009,0,0)"
       ry="3.9978876"
       rx="1.5040182"
       cy="16.546341"
       cx="-55.720058"
       style="fill:#2f2e41;stroke-width:0.20021482" />
    <ellipse
       id="ellipse30"
       transform="matrix(0.01174459,-0.99993103,0.99993014,0.01182009,0,0)"
       ry="3.9978876"
       rx="1.5040182"
       cy="26.141272"
       cx="-55.519524"
       style="fill:#2f2e41;stroke-width:0.20021482" />
    <ellipse
       ry="5.4144678"
       rx="5.3971462"
       id="circle32"
       cy="30.78883"
       cx="19.784203"
       style="fill:#ffffff;stroke-width:0.20021482" />
    <ellipse
       ry="1.8048226"
       rx="1.7990487"
       id="circle34"
       cy="30.78883"
       cx="19.784203"
       style="fill:#3f3d56;stroke-width:0.20021482" />
    <path
       id="path36"
       d="M 4.1929989,19.881581 C 2.9852675,14.138084 7.1289624,8.39793 13.448203,7.0605886 19.767443,5.7232471 25.869261,9.2951434 27.076996,15.03864 28.284732,20.782137 24.082911,22.8455 17.763673,24.182846 11.444434,25.520191 5.4007322,25.62508 4.1929989,19.881581 Z"
       inkscape:connector-curvature="0"
       style="fill:#6195ff;stroke-width:0.20021482" />
    <path
       id="path38"
       d="m 43.426303,43.632594 c 0,11.044682 -6.544509,14.901077 -14.61827,14.901077 q -0.280554,0 -0.560214,-0.0063 c -0.37408,-0.008 -0.744594,-0.02591 -1.110651,-0.05094 -7.286417,-0.51734 -12.947407,-4.572091 -12.947407,-14.84389 0,-10.63009 13.540584,-24.043469 14.557702,-25.036163 l 0.0018,-0.0018 c 0.03919,-0.03842 0.05879,-0.05719 0.05879,-0.05719 0,0 14.61827,14.050458 14.61827,25.095137 z"
       inkscape:connector-curvature="0"
       style="fill:#6195ff;stroke-width:0.20021482" />
    <path
       id="path40"
       d="m 28.275425,56.844038 5.346572,-7.49476 -5.359937,8.317685 -0.01423,0.860451 c -0.37408,-0.008 -0.744594,-0.02591 -1.110651,-0.05094 l 0.57626,-11.050042 -0.0045,-0.08578 0.0098,-0.01608 0.05433,-1.043619 -5.373311,-8.33824 5.390228,7.555525 0.01247,0.221592 0.435517,-8.348957 -4.600207,-8.616125 4.65632,7.150767 0.453338,-17.309088 0.0018,-0.05896 v 0.05719 l -0.0757,13.649271 4.579736,-5.4111 -4.598438,6.586956 -0.121126,7.475106 4.276025,-7.174001 -4.29383,8.273908 -0.06769,4.155704 6.20784,-9.984978 -6.230998,11.435155 z"
       inkscape:connector-curvature="0"
       style="fill:#3f3d56;stroke-width:0.20021482" />
    <ellipse
       ry="15.842331"
       rx="15.79165"
       id="circle42"
       cy="34.623184"
       cx="142.35255"
       style="fill:#2f2e41;stroke-width:0.20021482" />
    <rect
       id="rect44"
       transform="matrix(0.95561285,-0.29462533,0.29290521,0.95614148,0,0)"
       height="8.6206636"
       width="4.7987938"
       y="87.456932"
       x="118.7699"
       style="fill:#2f2e41;stroke-width:0.20021498" />
    <rect
       id="rect46"
       transform="matrix(0.95561422,-0.29462087,0.29290075,0.95614285,0,0)"
       height="8.6206703"
       width="4.7987976"
       y="87.457169"
       x="128.36737"
       style="fill:#2f2e41;stroke-width:0.20021513" />
    <ellipse
       id="ellipse48"
       transform="matrix(0.95561285,-0.29462533,0.29290521,0.95614148,0,0)"
       ry="1.5036042"
       rx="3.9989951"
       cy="96.177841"
       cx="122.76889"
       style="fill:#2f2e41;stroke-width:0.20021498" />
    <ellipse
       id="ellipse50"
       transform="matrix(0.95561285,-0.29462533,0.29290521,0.95614148,0,0)"
       ry="1.5036042"
       rx="3.9989951"
       cy="95.977356"
       cx="132.36647"
       style="fill:#2f2e41;stroke-width:0.20021498" />
    <ellipse
       ry="5.4144678"
       rx="5.3971462"
       id="circle52"
       cy="30.671597"
       cx="141.56027"
       style="fill:#ffffff;stroke-width:0.20021482" />
    <ellipse
       ry="1.8048226"
       rx="1.7990487"
       id="circle54"
       cy="30.671597"
       cx="141.56027"
       style="fill:#3f3d56;stroke-width:0.20021482" />
    <path
       id="path56"
       d="m 123.39584,25.054764 c -2.89638,-5.100274 -0.69531,-11.834823 4.91623,-15.042033 5.61154,-3.20721 12.50857,-1.6725794 15.40495,3.427695 2.89638,5.100274 -0.47789,8.351014 -6.08943,11.558226 -5.61154,3.207212 -11.33536,5.156386 -14.23175,0.05611 z"
       inkscape:connector-curvature="0"
       style="fill:#6195ff;stroke-width:0.20021482" />
    <path
       id="path58"
       d="m 114.18889,41.610118 c 0,10.138513 -6.00756,13.678508 -13.41891,13.678508 q -0.25753,0 -0.51425,-0.0057 c -0.343388,-0.0074 -0.683504,-0.02378 -1.019526,-0.04675 -6.688599,-0.474895 -11.885129,-4.196971 -11.885129,-13.62601 0,-9.757937 12.429639,-22.070806 13.363305,-22.982053 l 0.002,-0.0016 c 0.036,-0.03527 0.054,-0.05249 0.054,-0.05249 0,0 13.4189,12.897669 13.4189,23.036181 z"
       inkscape:connector-curvature="0"
       style="fill:#6195ff;stroke-width:0.20021482" />
    <path
       id="path60"
       d="m 100.28107,53.737622 4.90791,-6.879848 -4.92018,7.635254 -0.0131,0.789855 c -0.343388,-0.0074 -0.683504,-0.02378 -1.019526,-0.04675 l 0.52898,-10.143434 -0.0041,-0.07874 0.009,-0.01476 0.04987,-0.957996 -4.932454,-7.654124 4.947984,6.935626 0.01145,0.20341 0.399796,-7.66396 -4.222788,-7.909212 4.274288,6.564077 0.41614,-15.88895 0.002,-0.05413 v 0.05249 l -0.0695,12.529403 4.20398,-4.96714 -4.22116,6.046524 -0.11119,6.861805 3.9252,-6.585396 -3.94154,7.595072 -0.0621,3.814753 5.69851,-9.165753 -5.71977,10.496944 z"
       inkscape:connector-curvature="0"
       style="fill:#3f3d56;stroke-width:0.20021482" />
    <path
       id="path62"
       d="m 166.96098,45.838489 c 0,11.044682 -6.54451,14.901076 -14.61827,14.901076 q -0.28055,0 -0.56021,-0.0063 c -0.37408,-0.008 -0.7446,-0.02591 -1.11065,-0.05094 -7.28642,-0.51734 -12.94741,-4.572091 -12.94741,-14.843889 0,-10.63009 13.54058,-24.043469 14.5577,-25.036164 l 0.002,-0.0018 c 0.0392,-0.03842 0.0588,-0.05719 0.0588,-0.05719 0,0 14.61827,14.050458 14.61827,25.095138 z"
       inkscape:connector-curvature="0"
       style="fill:#6195ff;stroke-width:0.20021482" />
    <path
       id="path64"
       d="m 151.8101,59.049932 5.34657,-7.49476 -5.35993,8.317685 -0.0142,0.860451 c -0.37408,-0.008 -0.74459,-0.02591 -1.11065,-0.05094 l 0.57626,-11.050042 -0.004,-0.08578 0.01,-0.01608 0.0543,-1.043619 -5.3733,-8.338234 5.39023,7.555525 0.0125,0.221592 0.43552,-8.348957 -4.60021,-8.616124 4.65632,7.150767 0.45334,-17.309089 0.002,-0.05896 v 0.05718 l -0.0757,13.649272 4.57974,-5.411101 -4.59844,6.586957 -0.12114,7.475105 4.27602,-7.174007 -4.29383,8.273908 -0.0677,4.155705 6.20784,-9.984979 -6.231,11.435156 z"
       inkscape:connector-curvature="0"
       style="fill:#3f3d56;stroke-width:0.20021482" />
    <ellipse
       id="ellipse66"
       transform="matrix(0.42740911,-0.90405832,0.90299501,0.42965104,0,0)"
       ry="7.9004846"
       rx="2.4852397"
       cy="140.55338"
       cx="21.76465"
       style="fill:#2f2e41;stroke-width:0.20021513" />
    <ellipse
       id="ellipse68"
       transform="matrix(0.37101752,-0.92862586,0.92780249,0.37307175,0,0)"
       ry="7.8993373"
       rx="2.485599"
       cy="28.184931"
       cx="-31.438616"
       style="fill:#2f2e41;stroke-width:0.20021506" />
  </g>
</svg>
