<?xml version="1.0" encoding="UTF-8" standalone="no"?>
<svg
   xmlns:dc="http://purl.org/dc/elements/1.1/"
   xmlns:cc="http://creativecommons.org/ns#"
   xmlns:rdf="http://www.w3.org/1999/02/22-rdf-syntax-ns#"
   xmlns:svg="http://www.w3.org/2000/svg"
   xmlns="http://www.w3.org/2000/svg"
   xmlns:xlink="http://www.w3.org/1999/xlink"
   xmlns:sodipodi="http://sodipodi.sourceforge.net/DTD/sodipodi-0.dtd"
   xmlns:inkscape="http://www.inkscape.org/namespaces/inkscape"
   id="f698cf57-4f6b-4529-a39c-70592e247574"
   data-name="Layer 1"
   width="168"
   height="146"
   viewBox="0 0 168 146"
   version="1.1"
   sodipodi:docname="taken.svg"
   inkscape:version="0.92.3 (2405546, 2018-03-11)">
  <metadata
     id="metadata123">
    <rdf:RDF>
      <cc:Work
         rdf:about="">
        <dc:format>image/svg+xml</dc:format>
        <dc:type
           rdf:resource="http://purl.org/dc/dcmitype/StillImage" />
        <dc:title>Taken</dc:title>
      </cc:Work>
    </rdf:RDF>
  </metadata>
  <sodipodi:namedview
     pagecolor="#ffffff"
     bordercolor="#666666"
     borderopacity="1"
     objecttolerance="10"
     gridtolerance="10"
     guidetolerance="10"
     inkscape:pageopacity="0"
     inkscape:pageshadow="2"
     inkscape:window-width="1920"
     inkscape:window-height="1016"
     id="namedview121"
     showgrid="false"
     inkscape:zoom="0.32468874"
     inkscape:cx="426.15975"
     inkscape:cy="363.42499"
     inkscape:window-x="0"
     inkscape:window-y="27"
     inkscape:window-maximized="1"
     inkscape:current-layer="f698cf57-4f6b-4529-a39c-70592e247574" />
  <defs
     id="defs12">
    <linearGradient
       id="aba94383-0ea8-4a3d-bf3d-6bf7d0bb624b"
       x1="432"
       y1="245.78"
       x2="432"
       y2="18.85"
       gradientUnits="userSpaceOnUse">
      <stop
         offset="0"
         stop-color="gray"
         stop-opacity="0.25"
         id="stop2" />
      <stop
         offset="0.54"
         stop-color="gray"
         stop-opacity="0.12"
         id="stop4" />
      <stop
         offset="1"
         stop-color="gray"
         stop-opacity="0.1"
         id="stop6" />
    </linearGradient>
    <linearGradient
       id="e6500262-d2e6-47ad-ace4-95109017cb85"
       x1="447.26999"
       y1="1916.01"
       x2="447.26999"
       y2="1730.58"
       gradientTransform="matrix(0.95,0.32,-0.32,0.95,752.71,-1245.02)"
       xlink:href="#aba94383-0ea8-4a3d-bf3d-6bf7d0bb624b" />
    <linearGradient
       id="ba3c64e7-a915-4515-a2e7-88140805555d"
       x1="334.26999"
       y1="1539.38"
       x2="334.26999"
       y2="1353.95"
       gradientTransform="matrix(0.95,0.32,-0.32,0.95,752.71,-1245.02)"
       xlink:href="#aba94383-0ea8-4a3d-bf3d-6bf7d0bb624b" />
    <linearGradient
       id="fa3dfd3f-e414-4f67-9974-b38d7e79cebc"
       x1="432"
       y1="258.09"
       x2="432"
       y2="103.27"
       xlink:href="#aba94383-0ea8-4a3d-bf3d-6bf7d0bb624b" />
    <linearGradient
       inkscape:collect="always"
       xlink:href="#aba94383-0ea8-4a3d-bf3d-6bf7d0bb624b"
       id="linearGradient179"
       gradientUnits="userSpaceOnUse"
       x1="432"
       y1="245.78"
       x2="432"
       y2="18.85" />
  </defs>
  <title
     id="title14">Taken</title>
  <g
     id="g177"
     transform="matrix(0.2,0,0,0.20086719,0,-2.9558594e-4)">
    <g
       id="g18"
       style="opacity:0.8">
      <ellipse
         id="ellipse16"
         ry="113.46"
         rx="146.46001"
         cy="132.31"
         cx="432"
         style="fill:url(#linearGradient179)" />
    </g>
    <ellipse
       id="ellipse20"
       ry="110.94"
       rx="143.21001"
       cy="132.31"
       cx="432"
       style="fill:#6195ff" />
    <path
       id="path22"
       transform="translate(-180,-86.57)"
       d="m 491.94,231.21 c 0,-61.27 64.11,-110.94 143.2,-110.94 A 175.54,175.54 0 0 1 706.5,135 c -25.17,-17 -58.1,-27.33 -94.14,-27.33 -79.09,0 -143.21,49.67 -143.21,110.94 0,41.14 28.91,77.05 71.86,96.21 -30.07,-20.34 -49.07,-50.25 -49.07,-83.61 z"
       inkscape:connector-curvature="0"
       style="opacity:0.1;fill:#ffffff" />
    <polygon
       id="polygon24"
       points="432,176.9 590.76,451.88 749.52,726.85 432,726.85 114.48,726.85 273.24,451.88 "
       style="opacity:0.2;fill:#6195ff" />
    <g
       id="g28"
       style="opacity:0.3">
      <path
         id="path26"
         transform="translate(-180,-86.57)"
         d="M 649.67,652.79 662,616.2 a 62.66,62.66 0 0 0 -23.2,-70.89 l 0.1,-0.06 a 61.48,61.48 0 0 0 -15.79,-8 v 0 l -0.17,-0.06 -0.19,-0.06 v 0 a 61.55,61.55 0 0 0 -16.9,-3.18 59.28,59.28 0 0 0 -6.11,0 62.32,62.32 0 0 0 -10.49,1.45 c -1,0.22 -2,0.47 -2.91,0.74 -0.91,0.27 -1.93,0.56 -2.88,0.87 -1.9,0.63 -3.77,1.34 -5.6,2.15 -0.92,0.4 -1.83,0.82 -2.72,1.27 a 61.47,61.47 0 0 0 -7.75,4.56 c -0.83,0.57 -1.64,1.16 -2.44,1.76 a 62,62 0 0 0 -21.24,29.6 L 524.33,634 a 61.86,61.86 0 0 0 -2.68,28.12 c 0.2,1.45 0.45,2.89 0.74,4.32 0.29,1.43 0.65,2.84 1,4.24 0.27,0.93 0.55,1.86 0.86,2.78 0.46,1.37 1,2.74 1.51,4.08 0.37,0.89 0.76,1.78 1.17,2.66 0.81,1.75 1.71,3.46 2.68,5.13 0.97,1.67 2,3.3 3.16,4.88 0.84,1.18 1.73,2.34 2.65,3.46 1.24,1.5 2.54,3 3.92,4.33 a 61.81,61.81 0 0 0 21,13.89 v 0 0 l 0.34,0.14 a 21.66,21.66 0 0 1 1.4,-2.17 c 3,-4.11 8.22,-7 13.19,-5.92 0.36,0.08 0.72,0.19 1.08,0.3 2.52,0.89 5,2.48 7.43,3.26 a 6.66,6.66 0 0 0 5.61,-0.07 c 4.86,-2.59 3.06,-10.76 7.23,-14.34 a 6.5,6.5 0 0 1 0.61,-0.46 1.88,1.88 0 0 1 -0.16,-0.23 c 3.22,-2 7.68,-0.67 11.39,0.62 4,1.41 9.22,2.36 12,-0.91 1.88,-2.24 1.74,-5.65 3.53,-8 2.08,-2.7 6,-3 9.39,-2.52 l 0.17,0.05 c 6.5,2.68 13.6,-1.77 13.1,-8.78 -0.59,-9.35 2.35,-18.16 3.02,-20.07 z"
         style="fill:url(#e6500262-d2e6-47ad-ace4-95109017cb85)"
         inkscape:connector-curvature="0" />
    </g>
    <path
       id="path30"
       transform="translate(-180,-86.57)"
       d="m 563.21,706.78 c 2.92,-4 7.93,-6.8 12.73,-5.71 4.8,1.09 9.35,5.66 13.62,3.37 5.84,-3.12 1.7,-14.59 11.18,-15.44 a 12.44,12.44 0 0 1 5.77,1 c 4,1.63 10.26,3.47 13.34,-0.2 1.81,-2.16 1.68,-5.45 3.41,-7.69 2,-2.6 5.81,-2.93 9.06,-2.43 l 0.16,0.05 c 6.27,2.59 13.13,-1.71 12.64,-8.47 -0.63,-9 2.23,-17.48 2.85,-19.32 l 11.88,-35.31 A 60.38,60.38 0 0 0 622,540.34 v 0 A 60.38,60.38 0 0 0 545.73,578.2 L 527,633.73 a 60.39,60.39 0 0 0 34.82,75.15 21.47,21.47 0 0 1 1.39,-2.1 z"
       inkscape:connector-curvature="0"
       style="fill:#ffffff" />
    <circle
       id="circle32"
       r="6.5100002"
       cy="486.07999"
       cx="405.35001"
       style="opacity:0.2" />
    <circle
       id="circle34"
       r="6.5100002"
       cy="498.53"
       cx="442.37"
       style="opacity:0.2" />
    <ellipse
       id="ellipse36"
       transform="rotate(-71.4,445.36829,685.53026)"
       ry="6.5100002"
       rx="9.7600002"
       cy="603.56"
       cx="595.54999"
       style="fill:#e0e0e0" />
    <circle
       id="circle38"
       r="9.7600002"
       cy="487.51999"
       cx="552.53003"
       style="fill:#ffffff" />
    <circle
       id="circle40"
       r="4.8800001"
       cy="472.17001"
       cx="583.45001"
       style="fill:#ffffff" />
    <g
       id="g52"
       style="opacity:0.5">
      <g
         id="g44"
         style="opacity:0.3">
        <path
           id="path42"
           transform="translate(-180,-86.57)"
           d="M 662.67,259.79 675,223.2 a 62.66,62.66 0 0 0 -23.2,-70.89 l 0.1,-0.06 a 61.48,61.48 0 0 0 -15.79,-8 v 0 l -0.17,-0.06 -0.19,-0.06 v 0 a 61.55,61.55 0 0 0 -16.9,-3.18 59.28,59.28 0 0 0 -6.11,0 62.32,62.32 0 0 0 -10.49,1.45 c -1,0.22 -2,0.47 -2.91,0.74 -0.91,0.27 -1.93,0.56 -2.88,0.87 -1.9,0.63 -3.77,1.34 -5.6,2.15 -0.92,0.4 -1.83,0.82 -2.72,1.27 a 61.47,61.47 0 0 0 -7.75,4.56 c -0.83,0.57 -1.64,1.16 -2.44,1.76 a 62,62 0 0 0 -21.24,29.6 L 537.33,241 a 61.86,61.86 0 0 0 -2.68,28.12 c 0.2,1.45 0.45,2.89 0.74,4.32 0.29,1.43 0.65,2.84 1,4.24 0.27,0.93 0.55,1.86 0.86,2.78 0.46,1.37 1,2.74 1.51,4.08 0.37,0.89 0.76,1.78 1.17,2.66 0.81,1.75 1.71,3.46 2.68,5.13 0.97,1.67 2,3.3 3.16,4.88 0.84,1.18 1.73,2.34 2.65,3.46 1.24,1.5 2.54,2.95 3.92,4.33 a 61.81,61.81 0 0 0 21,13.89 v 0 0 l 0.34,0.14 a 21.66,21.66 0 0 1 1.4,-2.17 c 3,-4.11 8.22,-7 13.19,-5.92 0.36,0.08 0.72,0.19 1.08,0.3 2.52,0.89 5,2.48 7.43,3.26 a 6.66,6.66 0 0 0 5.61,-0.07 c 4.86,-2.59 3.06,-10.76 7.23,-14.34 a 6.5,6.5 0 0 1 0.61,-0.46 1.88,1.88 0 0 1 -0.16,-0.23 c 3.22,-2 7.68,-0.67 11.39,0.62 4,1.41 9.22,2.36 12,-0.91 1.88,-2.24 1.74,-5.65 3.53,-8 2.08,-2.7 6,-3 9.39,-2.52 h 0.17 c 6.5,2.68 13.6,-1.77 13.1,-8.78 -0.59,-9.3 2.35,-18.11 3.02,-20.02 z"
           style="fill:url(#ba3c64e7-a915-4515-a2e7-88140805555d)"
           inkscape:connector-curvature="0" />
      </g>
      <path
         id="path46"
         transform="translate(-180,-86.57)"
         d="m 576.21,313.78 c 2.92,-4 7.93,-6.8 12.73,-5.71 4.8,1.09 9.35,5.66 13.62,3.37 5.84,-3.12 1.7,-14.59 11.18,-15.44 a 12.44,12.44 0 0 1 5.77,1 c 4,1.63 10.26,3.47 13.34,-0.2 1.81,-2.16 1.68,-5.45 3.41,-7.69 2,-2.6 5.81,-2.93 9.06,-2.43 l 0.16,0.05 c 6.27,2.59 13.13,-1.71 12.64,-8.47 -0.63,-9 2.23,-17.48 2.85,-19.32 l 11.88,-35.31 A 60.38,60.38 0 0 0 635,147.34 v 0 A 60.38,60.38 0 0 0 558.73,185.2 L 540,240.73 a 60.39,60.39 0 0 0 34.82,75.15 21.47,21.47 0 0 1 1.39,-2.1 z"
         inkscape:connector-curvature="0"
         style="fill:#ffffff" />
      <circle
         id="circle48"
         r="6.5100002"
         cy="93.080002"
         cx="418.35001"
         style="opacity:0.2" />
      <circle
         id="circle50"
         r="6.5100002"
         cy="105.53"
         cx="455.37"
         style="opacity:0.2" />
    </g>
    <path
       id="path54"
       transform="translate(-180,-86.57)"
       d="m 749.52,186 a 87.52,87.52 0 0 1 2.79,22 c 0,61.27 -64.11,110.94 -143.2,110.94 C 544.38,318.9 489.69,285.64 472,240 c 13.14,50.77 71,89 140.41,89 79.09,0 143.21,-49.67 143.21,-110.94 A 88.16,88.16 0 0 0 749.52,186 Z"
       inkscape:connector-curvature="0"
       style="opacity:0.1" />
    <g
       id="g58"
       style="opacity:0.8">
      <ellipse
         id="ellipse56"
         ry="77.410004"
         rx="296.17999"
         cy="180.67999"
         cx="432"
         style="fill:url(#fa3dfd3f-e414-4f67-9974-b38d7e79cebc)" />
    </g>
    <path
       id="path60"
       transform="translate(-180,-86.57)"
       d="m 612,192.4 c -158.18,0 -286.42,33.51 -286.42,74.86 H 898.42 C 898.42,225.91 770.18,192.4 612,192.4 Z"
       inkscape:connector-curvature="0"
       style="fill:#ffffff" />
    <path
       id="path62"
       transform="translate(-180,-86.57)"
       d="m 612,342.11 c 158.18,0 286.42,-33.51 286.42,-74.85 H 325.58 c 0,41.34 128.24,74.85 286.42,74.85 z"
       inkscape:connector-curvature="0"
       style="fill:#ffffff" />
    <path
       id="path64"
       transform="translate(-180,-86.57)"
       d="m 612,342.11 c 158.18,0 286.42,-33.51 286.42,-74.85 H 325.58 c 0,41.34 128.24,74.85 286.42,74.85 z"
       inkscape:connector-curvature="0"
       style="opacity:0.05" />
    <rect
       id="rect66"
       rx="17.219999"
       height="39.060001"
       width="273.39999"
       y="161.14999"
       x="295.29999"
       style="opacity:0.05" />
    <path
       id="path68"
       transform="translate(-180,-86.57)"
       d="m 313.89,144.38 a 3.68,3.68 0 0 1 -2.05,-4.44 1.86,1.86 0 0 0 0.08,-0.41 v 0 a 1.84,1.84 0 0 0 -3.31,-1.22 v 0 a 1.82,1.82 0 0 0 -0.2,0.36 3.67,3.67 0 0 1 -4.44,2.05 2,2 0 0 0 -0.41,-0.08 v 0 a 1.84,1.84 0 0 0 -1.22,3.31 v 0 a 1.62,1.62 0 0 0 0.36,0.21 3.68,3.68 0 0 1 2.05,4.44 1.89,1.89 0 0 0 -0.08,0.4 v 0 a 1.84,1.84 0 0 0 3.31,1.23 v 0 a 1.65,1.65 0 0 0 0.2,-0.37 3.67,3.67 0 0 1 4.44,-2 2,2 0 0 0 0.41,0.08 v 0 a 1.84,1.84 0 0 0 1.22,-3.31 v 0 a 1.62,1.62 0 0 0 -0.36,-0.25 z"
       inkscape:connector-curvature="0"
       style="opacity:0.5;fill:#4d8af0" />
    <path
       id="path70"
       transform="translate(-180,-86.57)"
       d="m 822.89,450.38 a 3.68,3.68 0 0 1 -2,-4.44 1.86,1.86 0 0 0 0.08,-0.41 v 0 a 1.84,1.84 0 0 0 -3.31,-1.22 v 0 a 1.82,1.82 0 0 0 -0.2,0.36 3.67,3.67 0 0 1 -4.44,2.05 2,2 0 0 0 -0.41,-0.08 v 0 a 1.84,1.84 0 0 0 -1.22,3.31 v 0 a 1.62,1.62 0 0 0 0.36,0.21 3.68,3.68 0 0 1 2,4.44 1.89,1.89 0 0 0 -0.08,0.4 v 0 a 1.84,1.84 0 0 0 3.31,1.23 v 0 a 1.65,1.65 0 0 0 0.2,-0.37 3.67,3.67 0 0 1 4.44,-2 2,2 0 0 0 0.41,0.08 v 0 a 1.84,1.84 0 0 0 1.22,-3.31 v 0 a 1.62,1.62 0 0 0 -0.36,-0.25 z"
       inkscape:connector-curvature="0"
       style="opacity:0.5;fill:#4d8af0" />
    <path
       id="path72"
       transform="translate(-180,-86.57)"
       d="m 260.89,592.38 a 3.68,3.68 0 0 1 -2.05,-4.44 1.86,1.86 0 0 0 0.08,-0.41 v 0 a 1.84,1.84 0 0 0 -3.31,-1.22 v 0 a 1.82,1.82 0 0 0 -0.2,0.36 3.67,3.67 0 0 1 -4.44,2.05 2,2 0 0 0 -0.41,-0.08 v 0 a 1.84,1.84 0 0 0 -1.22,3.31 v 0 a 1.62,1.62 0 0 0 0.36,0.21 3.68,3.68 0 0 1 2.05,4.44 1.89,1.89 0 0 0 -0.08,0.4 v 0 a 1.84,1.84 0 0 0 3.31,1.23 v 0 a 1.65,1.65 0 0 0 0.2,-0.37 3.67,3.67 0 0 1 4.44,-2 2,2 0 0 0 0.41,0.08 v 0 a 1.84,1.84 0 0 0 1.22,-3.31 v 0 a 1.62,1.62 0 0 0 -0.36,-0.25 z"
       inkscape:connector-curvature="0"
       style="opacity:0.5;fill:#4d8af0" />
    <path
       id="path74"
       transform="translate(-180,-86.57)"
       d="m 205.89,261.38 a 3.68,3.68 0 0 1 -2,-4.44 1.86,1.86 0 0 0 0.08,-0.41 v 0 a 1.84,1.84 0 0 0 -3.31,-1.22 v 0 a 1.82,1.82 0 0 0 -0.2,0.36 3.67,3.67 0 0 1 -4.44,2.05 2,2 0 0 0 -0.41,-0.08 v 0 a 1.84,1.84 0 0 0 -1.22,3.31 v 0 a 1.62,1.62 0 0 0 0.36,0.21 3.68,3.68 0 0 1 2.05,4.44 1.89,1.89 0 0 0 -0.08,0.4 v 0 a 1.84,1.84 0 0 0 3.31,1.23 v 0 a 1.65,1.65 0 0 0 0.2,-0.37 3.67,3.67 0 0 1 4.44,-2 2,2 0 0 0 0.41,0.08 v 0 a 1.84,1.84 0 0 0 1.22,-3.31 v 0 a 1.62,1.62 0 0 0 -0.41,-0.25 z"
       inkscape:connector-curvature="0"
       style="opacity:0.5;fill:#4d8af0" />
    <path
       id="path76"
       transform="translate(-180,-86.57)"
       d="m 812.89,93.38 a 3.68,3.68 0 0 1 -2,-4.44 1.86,1.86 0 0 0 0.08,-0.41 v 0 a 1.84,1.84 0 0 0 -3.31,-1.22 v 0 a 1.82,1.82 0 0 0 -0.2,0.36 3.67,3.67 0 0 1 -4.44,2 2,2 0 0 0 -0.41,-0.08 v 0 A 1.84,1.84 0 0 0 801.34,93 v 0 a 1.62,1.62 0 0 0 0.36,0.21 3.68,3.68 0 0 1 2,4.44 1.89,1.89 0 0 0 -0.08,0.4 v 0 a 1.84,1.84 0 0 0 3.38,1.18 v 0 a 1.65,1.65 0 0 0 0.2,-0.37 3.67,3.67 0 0 1 4.44,-2 2,2 0 0 0 0.41,0.08 v 0 a 1.84,1.84 0 0 0 1.22,-3.31 v 0 a 1.62,1.62 0 0 0 -0.38,-0.25 z"
       inkscape:connector-curvature="0"
       style="opacity:0.5;fill:#4d8af0" />
    <g
       id="g82"
       style="opacity:0.5">
      <rect
         id="rect78"
         height="17"
         width="3"
         y="257.85001"
         x="110"
         style="fill:#47e6b1" />
      <rect
         id="rect80"
         transform="rotate(90,244.79,219.64)"
         height="17"
         width="3"
         y="344.42999"
         x="290"
         style="fill:#47e6b1" />
    </g>
    <g
       id="g88"
       style="opacity:0.5">
      <rect
         id="rect84"
         height="17"
         width="3"
         y="177.85001"
         x="830"
         style="fill:#47e6b1" />
      <rect
         id="rect86"
         transform="rotate(90,964.79,139.64)"
         height="17"
         width="3"
         y="264.42999"
         x="1010"
         style="fill:#47e6b1" />
    </g>
    <g
       id="g94"
       style="opacity:0.5">
      <rect
         id="rect90"
         height="17"
         width="3"
         y="456.85001"
         x="730"
         style="fill:#47e6b1" />
      <rect
         id="rect92"
         transform="rotate(90,864.79,418.64)"
         height="17"
         width="3"
         y="543.42999"
         x="910"
         style="fill:#47e6b1" />
    </g>
    <circle
       id="circle96"
       r="6"
       cy="81.849998"
       cx="723"
       style="opacity:0.5;fill:#f55f44" />
    <circle
       id="circle98"
       r="6"
       cy="12.85"
       cx="6"
       style="opacity:0.5;fill:#f55f44" />
    <circle
       id="circle100"
       r="6"
       cy="357.85001"
       cx="186"
       style="opacity:0.5;fill:#f55f44" />
    <ellipse
       id="ellipse102"
       ry="7"
       rx="34"
       cy="154.42999"
       cx="234"
       style="opacity:0.05" />
    <ellipse
       id="ellipse104"
       ry="7"
       rx="34"
       cy="207.42999"
       cx="234"
       style="opacity:0.05" />
    <ellipse
       id="ellipse106"
       ry="7"
       rx="34"
       cy="154.42999"
       cx="621"
       style="opacity:0.05" />
    <ellipse
       id="ellipse108"
       ry="7"
       rx="34"
       cy="207.42999"
       cx="621"
       style="opacity:0.05" />
    <ellipse
       id="ellipse110"
       ry="7"
       rx="34"
       cy="124.43"
       cx="432"
       style="opacity:0.05" />
    <ellipse
       id="ellipse112"
       ry="7"
       rx="34"
       cy="51.43"
       cx="457"
       style="opacity:0.05" />
    <ellipse
       id="ellipse114"
       ry="7"
       rx="34"
       cy="81.43"
       cx="392"
       style="opacity:0.05" />
    <ellipse
       id="ellipse116"
       ry="7"
       rx="34"
       cy="94.43"
       cx="517"
       style="opacity:0.05" />
    <ellipse
       id="ellipse118"
       ry="7"
       rx="34"
       cy="228.42999"
       cx="432"
       style="opacity:0.05" />
  </g>
</svg>
