<?xml version="1.0" encoding="UTF-8" standalone="no"?>
<svg
   xmlns:dc="http://purl.org/dc/elements/1.1/"
   xmlns:cc="http://creativecommons.org/ns#"
   xmlns:rdf="http://www.w3.org/1999/02/22-rdf-syntax-ns#"
   xmlns:svg="http://www.w3.org/2000/svg"
   xmlns="http://www.w3.org/2000/svg"
   xmlns:xlink="http://www.w3.org/1999/xlink"
   xmlns:sodipodi="http://sodipodi.sourceforge.net/DTD/sodipodi-0.dtd"
   xmlns:inkscape="http://www.inkscape.org/namespaces/inkscape"
   id="7148f5f1-8839-4464-a941-0c8a08d3460a"
   data-name="Layer 1"
   width="136"
   height="146"
   viewBox="0 0 136 146"
   version="1.1"
   sodipodi:docname="vault.svg"
   inkscape:version="0.92.3 (2405546, 2018-03-11)">
  <metadata
     id="metadata120">
    <rdf:RDF>
      <cc:Work
         rdf:about="">
        <dc:format>image/svg+xml</dc:format>
        <dc:type
           rdf:resource="http://purl.org/dc/dcmitype/StillImage" />
        <dc:title>vault</dc:title>
      </cc:Work>
    </rdf:RDF>
  </metadata>
  <sodipodi:namedview
     pagecolor="#ffffff"
     bordercolor="#666666"
     borderopacity="1"
     objecttolerance="10"
     gridtolerance="10"
     guidetolerance="10"
     inkscape:pageopacity="0"
     inkscape:pageshadow="2"
     inkscape:window-width="1920"
     inkscape:window-height="1016"
     id="namedview118"
     showgrid="false"
     inkscape:zoom="0.32196453"
     inkscape:cx="345.36186"
     inkscape:cy="366.5"
     inkscape:window-x="0"
     inkscape:window-y="27"
     inkscape:window-maximized="1"
     inkscape:current-layer="7148f5f1-8839-4464-a941-0c8a08d3460a" />
  <defs
     id="defs23">
    <linearGradient
       id="4ca4b65a-1144-4de1-8925-6a62bc294928"
       x1="585.47998"
       y1="733"
       x2="585.47998"
       y2="673.63"
       gradientUnits="userSpaceOnUse">
      <stop
         offset="0"
         stop-color="gray"
         stop-opacity="0.25"
         id="stop2" />
      <stop
         offset="0.54"
         stop-color="gray"
         stop-opacity="0.12"
         id="stop4" />
      <stop
         offset="1"
         stop-color="gray"
         stop-opacity="0.1"
         id="stop6" />
    </linearGradient>
    <linearGradient
       id="266d8c0d-4533-41a2-a7bc-3c0f98c2c2fa"
       x1="93.980003"
       x2="93.980003"
       y2="673.63"
       xlink:href="#4ca4b65a-1144-4de1-8925-6a62bc294928" />
    <linearGradient
       id="deb99f58-9fb9-4a93-aaf8-4b4cb68821c1"
       x1="339.14999"
       y1="681.79999"
       x2="339.14999"
       y2="0"
       xlink:href="#4ca4b65a-1144-4de1-8925-6a62bc294928" />
    <linearGradient
       id="c4ad51c6-ffe9-4991-94f6-4a02d4a38b0c"
       x1="339.14999"
       y1="569.14001"
       x2="339.14999"
       y2="111.49"
       xlink:href="#4ca4b65a-1144-4de1-8925-6a62bc294928" />
    <linearGradient
       id="b91b9d0a-3c7c-4b7e-8301-556f9b68b111"
       x1="806.95001"
       y1="427.79001"
       x2="806.95001"
       y2="354.23999"
       gradientTransform="translate(-0.46,-24.57)"
       xlink:href="#4ca4b65a-1144-4de1-8925-6a62bc294928" />
    <linearGradient
       id="8f58feb2-c461-4934-9419-72f8b76f5e61"
       x1="780.89001"
       y1="503.20001"
       x2="780.89001"
       y2="429.64999"
       gradientTransform="rotate(90,788.23,481.69)"
       xlink:href="#4ca4b65a-1144-4de1-8925-6a62bc294928" />
    <linearGradient
       id="d83c7eb3-9930-4e8e-abfa-53b87d59f968"
       x1="565.47998"
       y1="376.26001"
       x2="565.47998"
       y2="302.70999"
       xlink:href="#4ca4b65a-1144-4de1-8925-6a62bc294928" />
    <linearGradient
       id="3d971d9d-e0fc-4263-8761-c1789934eb12"
       x1="339.14999"
       y1="423.20999"
       x2="339.14999"
       y2="255.09"
       xlink:href="#4ca4b65a-1144-4de1-8925-6a62bc294928" />
    <linearGradient
       id="18a30a45-ec9b-4146-ae9c-2a8eabf3bdf2"
       x1="290.10999"
       y1="525.35999"
       x2="290.10999"
       y2="499.67001"
       xlink:href="#4ca4b65a-1144-4de1-8925-6a62bc294928" />
    <linearGradient
       id="98f2a4d5-9270-4ece-b23b-fefaca1fb56f"
       x1="322.79999"
       y1="525.35999"
       x2="322.79999"
       y2="499.67001"
       xlink:href="#4ca4b65a-1144-4de1-8925-6a62bc294928" />
    <linearGradient
       id="a36f1bde-d0b8-4d42-abdf-c9e597afa610"
       x1="355.48999"
       y1="525.35999"
       x2="355.48999"
       y2="499.67001"
       xlink:href="#4ca4b65a-1144-4de1-8925-6a62bc294928" />
    <linearGradient
       id="a4e6c30c-4fa5-4c93-a462-54244d7638b4"
       x1="388.17999"
       y1="525.35999"
       x2="388.17999"
       y2="499.67001"
       xlink:href="#4ca4b65a-1144-4de1-8925-6a62bc294928" />
    <linearGradient
       id="bb8b14ca-ea5c-42e9-a47f-d810d565e441"
       x1="339.14999"
       y1="389.92999"
       x2="339.14999"
       y2="288.35999"
       xlink:href="#4ca4b65a-1144-4de1-8925-6a62bc294928" />
    <linearGradient
       id="c7b6fbbe-7ded-4a5e-a460-2ea21f819315"
       x1="377.60001"
       y1="380.54001"
       x2="377.60001"
       y2="283.64001"
       xlink:href="#4ca4b65a-1144-4de1-8925-6a62bc294928" />
    <linearGradient
       id="b424414b-c049-456f-9819-be23a4131db6"
       x1="377.60001"
       y1="563.83002"
       x2="377.60001"
       y2="466.92999"
       xlink:href="#4ca4b65a-1144-4de1-8925-6a62bc294928" />
    <linearGradient
       inkscape:collect="always"
       xlink:href="#4ca4b65a-1144-4de1-8925-6a62bc294928"
       id="linearGradient169"
       gradientUnits="userSpaceOnUse"
       x1="585.47998"
       y1="733"
       x2="585.47998"
       y2="673.63" />
  </defs>
  <title
     id="title25">vault</title>
  <g
     id="g167"
     transform="scale(0.20050126,0.19918145)">
    <rect
       id="rect27"
       height="59.369999"
       width="50.200001"
       y="673.63"
       x="560.38"
       style="fill:url(#linearGradient169)" />
    <rect
       id="rect29"
       transform="rotate(-180,715.91,744.23)"
       height="57.209999"
       width="47.869999"
       y="757.63"
       x="822.40002"
       style="fill:#f5f5f5" />
    <rect
       id="rect31"
       height="59.369999"
       width="50.200001"
       y="673.63"
       x="68.879997"
       style="fill:url(#266d8c0d-4533-41a2-a7bc-3c0f98c2c2fa)" />
    <rect
       id="rect33"
       height="57.209999"
       width="47.869999"
       y="673.63"
       x="70.050003"
       style="fill:#f5f5f5" />
    <rect
       id="rect35"
       ry="14.86"
       rx="14.86"
       height="681.79999"
       width="678.29999"
       style="fill:url(#deb99f58-9fb9-4a93-aaf8-4b4cb68821c1)"
       x="0"
       y="0" />
    <rect
       id="rect37"
       ry="14.86"
       rx="14.86"
       height="670.12"
       width="670.12"
       y="3.5"
       x="4.6700001"
       style="fill:#fafafa" />
    <rect
       id="rect39"
       height="457.64999"
       width="452.98001"
       y="111.49"
       x="112.66"
       style="fill:url(#c4ad51c6-ffe9-4991-94f6-4a02d4a38b0c)" />
    <rect
       id="rect41"
       transform="rotate(-14.86,353.90422,1324.5292)"
       height="73.550003"
       width="150.60001"
       y="329.67001"
       x="731.19"
       style="fill:url(#b91b9d0a-3c7c-4b7e-8301-556f9b68b111)" />
    <rect
       id="rect43"
       transform="rotate(-14.86,353.90422,1324.5292)"
       height="71.220001"
       width="148.27"
       y="330.84"
       x="732.34998"
       style="fill:#ffffff" />
    <rect
       id="rect45"
       transform="rotate(-14.86,353.90422,1324.5292)"
       height="66.550003"
       width="138.55"
       y="333.17001"
       x="737.21997"
       style="fill:#69f0ae" />
    <ellipse
       id="ellipse47"
       transform="rotate(-14.86,353.21574,1324.1275)"
       ry="14.01"
       rx="25.68"
       cy="366.03"
       cx="805.77002"
       style="fill:#ffffff" />
    <rect
       id="rect49"
       transform="rotate(-71.04,614.21906,615.06431)"
       height="150.60001"
       width="73.550003"
       y="399.04999"
       x="766.71002"
       style="fill:url(#8f58feb2-c461-4934-9419-72f8b76f5e61)" />
    <rect
       id="rect51"
       transform="rotate(18.96,924.60066,-348.72527)"
       height="71.220001"
       width="148.27"
       y="438.73999"
       x="729.34998"
       style="fill:#ffffff" />
    <rect
       id="rect53"
       transform="rotate(18.96,924.60066,-348.72527)"
       height="66.550003"
       width="138.55"
       y="441.07999"
       x="734.21997"
       style="fill:#69f0ae" />
    <ellipse
       id="ellipse55"
       transform="rotate(-71.04,613.86067,614.3221)"
       ry="25.68"
       rx="14.01"
       cy="473.60999"
       cx="803.13"
       style="fill:#ffffff" />
    <rect
       id="rect57"
       height="73.550003"
       width="150.60001"
       y="302.70999"
       x="490.17999"
       style="fill:url(#d83c7eb3-9930-4e8e-abfa-53b87d59f968)" />
    <rect
       id="rect59"
       height="71.220001"
       width="148.27"
       y="303.88"
       x="491.35001"
       style="fill:#ffffff" />
    <rect
       id="rect61"
       height="66.550003"
       width="138.55"
       y="306.20999"
       x="496.20999"
       style="fill:#69f0ae" />
    <ellipse
       id="ellipse63"
       ry="14.01"
       rx="25.68"
       cy="338.89999"
       cx="564.90002"
       style="fill:#ffffff" />
    <rect
       id="rect65"
       height="445.97"
       width="445.97"
       y="116.16"
       x="116.16"
       style="fill:#ffffff" />
    <circle
       id="circle67"
       r="84.059998"
       cy="339.14999"
       cx="339.14999"
       style="fill:url(#3d971d9d-e0fc-4263-8761-c1789934eb12)" />
    <circle
       id="circle69"
       r="80.559998"
       cy="339.14999"
       cx="339.14999"
       style="fill:#fafafa" />
    <rect
       id="rect71"
       height="25.68"
       width="24.52"
       y="499.67001"
       x="277.85999"
       style="fill:url(#18a30a45-ec9b-4146-ae9c-2a8eabf3bdf2)" />
    <rect
       id="rect73"
       height="25.68"
       width="24.52"
       y="499.67001"
       x="310.54999"
       style="fill:url(#98f2a4d5-9270-4ece-b23b-fefaca1fb56f)" />
    <rect
       id="rect75"
       height="25.68"
       width="24.52"
       y="499.67001"
       x="343.23001"
       style="fill:url(#a36f1bde-d0b8-4d42-abdf-c9e597afa610)" />
    <rect
       id="rect77"
       height="25.68"
       width="24.52"
       y="499.67001"
       x="375.92001"
       style="fill:url(#a4e6c30c-4fa5-4c93-a462-54244d7638b4)" />
    <rect
       id="rect79"
       height="23.35"
       width="23.35"
       y="500.84"
       x="278.44"
       style="fill:#6195ff" />
    <rect
       id="rect81"
       height="23.35"
       width="23.35"
       y="500.84"
       x="311.13"
       style="opacity:0.7;fill:#6195ff" />
    <rect
       id="rect83"
       height="23.35"
       width="23.35"
       y="500.84"
       x="343.82001"
       style="opacity:0.5;fill:#6195ff" />
    <rect
       id="rect85"
       height="23.35"
       width="23.35"
       y="500.84"
       x="376.51001"
       style="opacity:0.3;fill:#6195ff" />
    <rect
       id="rect87"
       transform="rotate(35,633.73106,-75.681225)"
       height="16.34"
       width="4.6700001"
       y="371.79999"
       x="628.60999"
       style="fill:#6195ff" />
    <rect
       id="rect89"
       transform="rotate(125,534.6162,344.19806)"
       height="16.34"
       width="4.6700001"
       y="445.92001"
       x="640.84003"
       style="fill:#6195ff" />
    <rect
       id="rect91"
       transform="rotate(-145,425.38477,465.44725)"
       height="16.34"
       width="4.6700001"
       y="458.14999"
       x="566.71997"
       style="fill:#6195ff" />
    <rect
       id="rect93"
       transform="rotate(-55,345.72006,600.74706)"
       height="16.34"
       width="4.6700001"
       y="384.03"
       x="554.48999"
       style="fill:#6195ff" />
    <rect
       id="rect95"
       transform="rotate(35,633.68606,-75.823947)"
       height="16.34"
       width="4.6700001"
       y="371.66"
       x="628.57001"
       style="opacity:0.2" />
    <rect
       id="rect97"
       transform="rotate(125,534.58066,344.05881)"
       height="16.34"
       width="4.6700001"
       y="445.78"
       x="640.81"
       style="opacity:0.2" />
    <rect
       id="rect99"
       transform="rotate(-145,425.34721,465.31067)"
       height="16.34"
       width="4.6700001"
       y="458.01999"
       x="566.67999"
       style="opacity:0.2" />
    <rect
       id="rect101"
       transform="rotate(-55,345.68362,600.60601)"
       height="16.34"
       width="4.6700001"
       y="383.89001"
       x="554.45001"
       style="opacity:0.2" />
    <circle
       id="circle103"
       r="50.779999"
       cy="339.14999"
       cx="339.14999"
       style="fill:url(#bb8b14ca-ea5c-42e9-a47f-d810d565e441)" />
    <circle
       id="circle105"
       r="47.869999"
       cy="339.14999"
       cx="339.14999"
       style="fill:#6195ff" />
    <path
       id="path107"
       transform="translate(-260.85,-84)"
       d="m 560.89,429.57 a 47.86,47.86 0 0 1 71.67,-41.57 47.86,47.86 0 1 0 -57,76 47.71,47.71 0 0 1 -14.67,-34.43 z"
       inkscape:connector-curvature="0"
       style="opacity:0.2;fill:#ffffff" />
    <path
       id="path109"
       transform="translate(-260.85,-84)"
       d="m 396.28,380.54 h -37.36 v -93.28 a 3.63,3.63 0 0 1 3.63,-3.62 h 30.11 a 3.63,3.63 0 0 1 3.63,3.63 z"
       style="fill:url(#c7b6fbbe-7ded-4a5e-a460-2ea21f819315)"
       inkscape:connector-curvature="0" />
    <path
       id="path111"
       transform="translate(-260.85,-84)"
       d="m 392.47,563.83 h -29.74 a 3.81,3.81 0 0 1 -3.81,-3.81 v -93.09 h 37.36 V 560 a 3.81,3.81 0 0 1 -3.81,3.83 z"
       style="fill:url(#b424414b-c049-456f-9819-be23a4131db6)"
       inkscape:connector-curvature="0" />
    <path
       id="path113"
       d="m 102.4,200.8 h 28.69 a 3.17,3.17 0 0 1 3.17,3.17 v 90.23 h -35 V 204 a 3.17,3.17 0 0 1 3.14,-3.2 z"
       inkscape:connector-curvature="0"
       style="fill:#fafafa" />
    <path
       id="path115"
       d="m 99.23,384.1 h 35 v 92.33 a 1.06,1.06 0 0 1 -1.06,1.06 H 100.3 a 1.06,1.06 0 0 1 -1.06,-1.06 V 384.1 Z"
       inkscape:connector-curvature="0"
       style="fill:#fafafa" />
  </g>
</svg>
